<svg xmlns="http://www.w3.org/2000/svg" viewBox="0 0 512 512" style="enable-background:new 0 0 512 512" xml:space="preserve"><path style="fill:#029ae6" d="M120.546 316.179c0-68.755 49.921-95.271 49.921-95.271h171.066s49.921 26.516 49.921 95.271l-134.93 35.756-135.978-35.756z"/><path style="opacity:.1;enable-background:new" d="M160.458 316.179c0-68.755 49.921-95.271 49.921-95.271h-39.912s-49.921 26.516-49.921 95.271l135.978 35.756 19.879-5.268-115.945-30.488z"/><path style="fill:#85512d" d="M134.626 152.67v-23.813C134.626 61.931 189.075 7.483 256 7.483c66.926 0 121.374 54.448 121.374 121.373v23.813l-242.748.001z"/><path style="opacity:.1;enable-background:new" d="M275.956 9.134A121.57 121.57 0 0 0 256 7.484c-66.925 0-121.374 54.448-121.374 121.374v23.813h39.912v-23.813c0-60.131 43.954-110.178 101.418-119.724z"/><path style="fill:#f2a36d" d="M162.264 194.706c-5.253-1.501-10.436-3.428-15.207-6.111-14.849-8.352-20.687-23.529-17.714-40.051 2.917-16.206 15.313-27.42 31.74-19.574l14.461 31.587-13.28 34.149zM349.734 194.706c5.253-1.501 10.436-3.428 15.207-6.111 14.849-8.352 20.687-23.529 17.714-40.051-2.917-16.206-15.313-27.42-31.74-19.574l-14.461 31.587 13.28 34.149z"/><path style="fill:#ffb480" d="M331.908 84.308c-11.164 0-20.804-4.266-25.304-10.437v.006c-4.502 6.168-14.139 10.432-25.3 10.432-11.164 0-20.804-4.266-25.304-10.437v.006c-4.502 6.168-14.139 10.432-25.3 10.432-11.164 0-20.804-4.266-25.304-10.437v.006c-4.502 6.168-14.139 10.432-25.3 10.432-2.601 0-5.115-.24-7.504-.674-7.338 13.471-11.508 28.916-11.508 45.336v50.752c0 5.1.407 10.104 1.181 14.986L256 227.43l93.735-32.72a95.643 95.643 0 0 0 1.181-14.986v-50.752c0-16.419-4.17-31.864-11.508-45.335-2.387.43-4.9.671-7.5.671z"/><path style="fill:#b8703f" d="M256 180.216c-34.862 0-67.174 5.36-93.735 14.491 7.185 45.3 46.413 79.931 93.735 79.931 47.321 0 86.55-34.631 93.735-79.931-26.561-9.131-58.873-14.491-93.735-14.491z"/><path style="fill:#333" d="M291.672 199.028c0 19.701-15.971 35.672-35.672 35.672s-35.672-15.971-35.672-35.672h71.344z"/><path style="fill:#ccc" d="m94.136 316.179 28.471 155.478 133.917 16.43 132.869-16.43 28.471-155.478z"/><path style="opacity:.1;enable-background:new" d="m162.518 471.657-28.471-155.478H94.136l28.471 155.478 133.917 16.43 19.878-2.458z"/><circle style="fill:#fff" cx="256.004" cy="390.008" r="19.227"/><path style="fill:#b3b3b3" d="M390.441 471.657H122.607c-9.074 0-16.43 7.356-16.43 16.43s7.356 16.43 16.43 16.43H390.44c9.074 0 16.43-7.356 16.43-16.43s-7.356-16.43-16.429-16.43z"/><path style="opacity:.1;enable-background:new" d="M146.089 488.087c0-9.074 7.356-16.43 16.43-16.43h-39.912c-9.074 0-16.43 7.356-16.43 16.43s7.356 16.43 16.43 16.43h39.912c-9.074 0-16.43-7.356-16.43-16.43z"/><path d="M195.505 129.201a7.471 7.471 0 0 0 3.133-.691c2.939-1.357 9.199-2.807 17.951-2.807 8.75 0 15.008 1.45 17.947 2.806a7.482 7.482 0 0 0 9.93-3.659 7.482 7.482 0 0 0-3.659-9.93c-5.761-2.659-14.589-4.183-24.218-4.183-9.635 0-18.466 1.526-24.226 4.187a7.482 7.482 0 0 0 3.142 14.277z"/><circle cx="216.581" cy="152.672" r="10.758"/><path d="M255.999 234.7c19.701 0 35.672-15.971 35.672-35.672h-71.344c.001 19.7 15.971 35.672 35.672 35.672zM277.46 128.508c2.94-1.357 9.201-2.807 17.948-2.807 8.753 0 15.013 1.45 17.951 2.807a7.483 7.483 0 0 0 9.931-3.656 7.482 7.482 0 0 0-3.656-9.931c-5.76-2.661-14.592-4.187-24.226-4.187-9.629 0-18.456 1.525-24.217 4.183a7.484 7.484 0 0 0 6.269 13.591z"/><circle cx="295.417" cy="152.672" r="10.758"/><path d="M282.711 390.006c0-14.729-11.982-26.712-26.712-26.712-14.729 0-26.712 11.983-26.712 26.712 0 14.728 11.983 26.712 26.712 26.712s26.712-11.985 26.712-26.712zm-38.456 0c0-6.476 5.268-11.745 11.745-11.745 6.477 0 11.745 5.268 11.745 11.745 0 6.477-5.268 11.745-11.745 11.745s-11.745-5.27-11.745-11.745z"/><path d="M113.257 308.695H94.136a7.485 7.485 0 0 0-7.36 8.831L113.93 465.81c-8.906 3.482-15.234 12.151-15.234 22.276 0 13.186 10.727 23.913 23.913 23.913h204.646a7.483 7.483 0 0 0 7.483-7.483 7.483 7.483 0 0 0-7.483-7.483H122.607c-4.932 0-8.946-4.013-8.946-8.946s4.013-8.946 8.946-8.946h267.835c4.932 0 8.946 4.013 8.946 8.946s-4.013 8.946-8.946 8.946h-33.255a7.483 7.483 0 0 0-7.483 7.483 7.483 7.483 0 0 0 7.483 7.483h33.255c13.186 0 23.913-10.727 23.913-23.913 0-10.494-6.797-19.423-16.217-22.635l27.088-147.925a7.482 7.482 0 0 0-7.36-8.831h-19.127c-.668-12.871-3.059-25.132-7.15-36.539a7.483 7.483 0 1 0-14.088 5.054c3.514 9.798 5.611 20.36 6.256 31.485H183.91a7.483 7.483 0 0 0-7.483 7.483 7.483 7.483 0 0 0 7.483 7.483h224.976l-25.73 140.511H128.844l-25.73-140.511h50.864a7.483 7.483 0 0 0 7.483-7.483 7.483 7.483 0 0 0-7.483-7.483H128.24c1.325-23.333 8.921-43.715 22.632-60.671 6.195-7.662 12.454-13.039 16.894-16.36.143.242.294.479.439.72 10.261 17.088 25.631 31.087 43.606 39.706l.408.195c13.627 6.43 28.66 9.828 43.73 9.833l.052.001.052-.001c15.072-.005 30.117-3.381 43.737-9.836l.394-.188c18.013-8.614 33.303-22.572 43.592-39.674.152-.251.309-.5.459-.753 5.082 3.804 12.542 10.298 19.579 19.834a7.483 7.483 0 1 0 12.043-8.886c-9.137-12.382-18.868-20.334-24.901-24.57a101.646 101.646 0 0 0 5.32-17.539c4.6-1.552 8.668-3.328 12.336-5.39 17.076-9.604 25.081-27.51 21.411-47.9-.952-5.288-2.734-10.036-5.166-14.062v-4.298C384.857 57.804 327.051 0 255.999 0c-19.246 0-37.783 4.168-55.094 12.389a7.484 7.484 0 0 0 6.419 13.52c15.29-7.261 31.668-10.942 48.675-10.942 59.91 0 109.164 46.501 113.57 105.303a25.351 25.351 0 0 0-1.872-.54 26.604 26.604 0 0 0-9.772-.597c-.089-.921-.193-1.84-.306-2.758-.031-.249-.068-.497-.101-.746a102.786 102.786 0 0 0-7.175-26.502 98.656 98.656 0 0 0-4.363-9.072 7.484 7.484 0 0 0-7.906-3.784 34.68 34.68 0 0 1-6.166.553c-9.594 0-16.585-3.698-19.258-7.363-2.951-4.047-9.233-4.005-12.138.066-1.016 1.366-2.629 2.734-4.754 3.909-.043.024-.09.045-.133.069-3.535 1.928-7.413 2.869-11.405 3.193-7.494.61-17.402-.691-22.176-7.237a7.481 7.481 0 0 0-12.139.066c-2.473 3.463-7.105 5.337-11.073 6.339-.099.025-.204.044-.302.067-2.351.559-4.973.892-7.832.892-9.594 0-16.585-3.698-19.258-7.363-2.895-3.969-9.277-3.939-12.137.066-1.524 2.049-4.393 4.102-8.311 5.506-1.386.497-2.811.88-4.255 1.163-4.185.821-8.62.879-12.812.075a7.485 7.485 0 0 0-7.908 3.784c-4.944 9.079-8.469 18.938-10.475 29.076-.15.757-1.677 9.98-1.471 10.004a27.53 27.53 0 0 0-3.38-.21 26.1 26.1 0 0 0-8.262 1.345c2.305-30.595 16.859-58.979 40.728-78.889a7.484 7.484 0 0 0-9.588-11.493c-29.506 24.614-46.429 60.686-46.429 98.969v4.299c-2.432 4.026-4.213 8.773-5.166 14.062-3.67 20.39 4.334 38.295 21.411 47.9 3.666 2.061 7.733 3.839 12.335 5.389a101.701 101.701 0 0 0 5.31 17.514c-13.444 9.366-45.049 36.956-47.773 90.673zm60.087-109.916c26.746-7.795 54.838-11.079 82.655-11.079 28.718 0 57.639 3.54 85.118 12.073a87.06 87.06 0 0 1-7.687 20.534l-.154.29c-13.479 25.405-38.902 42.617-67.203 45.955-3.248.383-6.681.6-10.016.603l-.058.001-.058-.001a86.176 86.176 0 0 1-10.014-.602c-28.303-3.339-53.728-20.552-67.208-45.959l-.151-.285c-3.397-6.497-6.01-13.397-7.688-20.536-.041-.184.896-.538 2.464-.994zm187.931-16.708a48.093 48.093 0 0 1-2.948 1.524c.049-1.293.073-2.585.073-3.874v-45.497l.081-.017a13.564 13.564 0 0 1 2.825-.315c8.318 0 12.719 8.942 13.986 15.978 2.525 14.034-2.583 25.772-14.017 32.201zM174.097 98.325a86.151 86.151 0 0 1 2.796-6.637c1.066.069 2.135.104 3.202.104 9.719 0 18.77-2.782 25.302-7.549 6.534 4.767 15.582 7.549 25.302 7.549 9.719 0 18.77-2.782 25.301-7.549 6.534 4.767 15.583 7.549 25.302 7.549 9.718 0 18.77-2.782 25.302-7.549 6.534 4.767 15.582 7.549 25.302 7.549 1.065 0 2.132-.035 3.197-.104a87.558 87.558 0 0 1 7.794 27.642c.354 3.195.533 6.414.533 9.641v50.751c0 1.337-.053 2.672-.101 4.008-.016.347-.042.693-.062 1.041-.346-.104-.699-.2-1.047-.302-10.453-3.08-21.114-5.493-31.86-7.302-17.945-3.02-36.17-4.434-54.365-4.434-22.681 0-45.447 2.173-67.621 6.991a263.554 263.554 0 0 0-18.604 4.747c-.346.103-.699.198-1.044.301-.02-.347-.046-.693-.062-1.041a87.804 87.804 0 0 1-.101-4.008V128.97a87.868 87.868 0 0 1 5.534-30.645zm-23.372 83.747c-11.435-6.431-16.543-18.168-14.017-32.203 1.08-6.002 4.086-13.069 10.262-15.329 2.111-.772 4.364-.792 6.547-.333l.083.017v45.497c0 1.289.024 2.581.073 3.874a48.07 48.07 0 0 1-2.948-1.523z"/></svg>